<svg xmlns="http://www.w3.org/2000/svg" width="256" height="32" viewBox="0 0 256 32">
  <path d="M32 1L63 16 32 31 1 16Z" fill="#334b46" stroke="#182a2d" stroke-width="2"/>
  <path d="M96 1L127 16 96 31 65 16Z" fill="#66583c" stroke="#382f21" stroke-width="2"/>
  <path d="M73 16L96 5 119 16 96 27Z" fill="none" stroke="#8f7a4f" stroke-width="2" opacity=".55"/>
  <path d="M160 1L191 16 160 31 129 16Z" fill="#59636c"/>
  <path d="M129 16L160 30 191 16" fill="none" stroke="#303840" stroke-width="5"/>
  <path d="M138 14L152 3 163 17Z" fill="#818b91"/>
  <path d="M224 1L255 16 224 31 193 16Z" fill="#11131d"/>
  <path d="M193 16L224 2 255 16" fill="none" stroke="#b7774b" stroke-width="4"/>
</svg>
